<svg xmlns="http://www.w3.org/2000/svg" viewBox="0 0 800 400" fill="none">
  <defs>
    <linearGradient id="bg" x1="0" y1="0" x2="800" y2="400">
      <stop offset="0%" stop-color="#041f1a"/>
      <stop offset="100%" stop-color="#0a2d25"/>
    </linearGradient>
  </defs>
  <rect width="800" height="400" fill="url(#bg)"/>
  <!-- Grid -->
  <g stroke="#10b981" stroke-opacity="0.06" stroke-width="1">
    <line x1="0" y1="80" x2="800" y2="80"/><line x1="0" y1="160" x2="800" y2="160"/>
    <line x1="0" y1="240" x2="800" y2="240"/><line x1="0" y1="320" x2="800" y2="320"/>
    <line x1="160" y1="0" x2="160" y2="400"/><line x1="320" y1="0" x2="320" y2="400"/>
    <line x1="480" y1="0" x2="480" y2="400"/><line x1="640" y1="0" x2="640" y2="400"/>
  </g>
  <!-- Heart monitor / ECG line -->
  <polyline points="50,200 120,200 150,200 170,140 190,260 210,180 230,200 350,200 380,200 400,140 420,260 440,180 460,200 600,200" 
    stroke="#10b981" stroke-width="2" fill="none" opacity="0.5"/>
  <polyline points="50,200 120,200 150,200 170,140 190,260 210,180 230,200 350,200 380,200 400,140 420,260 440,180 460,200 600,200" 
    stroke="#10b981" stroke-width="6" fill="none" opacity="0.08"/>
  <!-- IoT device nodes -->
  <g transform="translate(150,120)">
    <rect x="-18" y="-18" width="36" height="36" rx="6" fill="none" stroke="#10b981" stroke-width="1.5" opacity="0.5"/>
    <text x="0" y="5" fill="#10b981" font-family="sans-serif" font-size="16" text-anchor="middle" opacity="0.6">⚕</text>
  </g>
  <g transform="translate(650,120)">
    <rect x="-18" y="-18" width="36" height="36" rx="6" fill="none" stroke="#14b8a6" stroke-width="1.5" opacity="0.5"/>
    <text x="0" y="5" fill="#14b8a6" font-family="sans-serif" font-size="16" text-anchor="middle" opacity="0.6">📡</text>
  </g>
  <g transform="translate(650,280)">
    <rect x="-18" y="-18" width="36" height="36" rx="6" fill="none" stroke="#10b981" stroke-width="1.5" opacity="0.5"/>
    <text x="0" y="5" fill="#10b981" font-family="sans-serif" font-size="16" text-anchor="middle" opacity="0.6">🔬</text>
  </g>
  <!-- Encrypted tunnel (dashed lines connecting devices) -->
  <line x1="168" y1="120" x2="632" y2="120" stroke="#14b8a6" stroke-width="1" stroke-dasharray="6,4" opacity="0.3"/>
  <line x1="650" y1="138" x2="650" y2="262" stroke="#14b8a6" stroke-width="1" stroke-dasharray="6,4" opacity="0.3"/>
  <!-- Shield with cross (health + security) -->
  <g transform="translate(400,300)">
    <path d="M0,-40 L30,-28 L30,0 C30,20 0,40 0,40 C0,40 -30,20 -30,0 L-30,-28 Z" fill="none" stroke="#10b981" stroke-width="1.5" opacity="0.4"/>
    <line x1="0" y1="-20" x2="0" y2="20" stroke="#10b981" stroke-width="2" opacity="0.4"/>
    <line x1="-15" y1="0" x2="15" y2="0" stroke="#10b981" stroke-width="2" opacity="0.4"/>
  </g>
  <!-- Privacy lock -->
  <g transform="translate(150,300)">
    <rect x="-12" y="0" width="24" height="18" rx="3" fill="none" stroke="#14b8a6" stroke-width="1.5" opacity="0.4"/>
    <path d="M-6,0 L-6,-8 C-6,-14 6,-14 6,-8 L6,0" fill="none" stroke="#14b8a6" stroke-width="1.5" opacity="0.4"/>
  </g>
  <!-- Glow -->
  <circle cx="400" cy="200" r="120" fill="#10b981" opacity="0.03"/>
  <circle cx="400" cy="200" r="60" fill="#14b8a6" opacity="0.04"/>
</svg>
